<svg xmlns="http://www.w3.org/2000/svg" class="QR" width="330" height="330" viewBox="0 0 33 33"
    preserveAspectRatio="xMidYMid meet"
    style="width:50vw; height:50vh; 
      position: fixed;
      left: 50%;
      top: 50%;
      transform: translate(-50%, -50%);
      display: block;display:block;">
  <defs>
    <circle cx="0.5" cy="0.5" r="0.5" id="dot" />
  </defs>
  <rect x="0" y="0" width="33" height="33" class="background" fill="#FFFFFF" />
  <g class="foreground" fill="#000000">
    <rect x="2" y="2" width="3" height="3" />
    <rect x="0" y="0" width="7" height="1" />
    <rect x="0" y="6" width="7" height="1" />
    <rect x="0" y="1" width="1" height="5" />
    <rect x="6" y="1" width="1" height="5" />
    <rect x="28" y="2" width="3" height="3" />
    <rect x="26" y="0" width="7" height="1" />
    <rect x="26" y="6" width="7" height="1" />
    <rect x="26" y="1" width="1" height="5" />
    <rect x="32" y="1" width="1" height="5" />
    <rect x="2" y="28" width="3" height="3" />
    <rect x="0" y="26" width="7" height="1" />
    <rect x="0" y="32" width="7" height="1" />
    <rect x="0" y="27" width="1" height="5" />
    <rect x="6" y="27" width="1" height="5" />
    <use x="8" y="6" href="#dot" />
    <use x="6" y="8" href="#dot" />
    <use x="10" y="6" href="#dot" />
    <use x="6" y="10" href="#dot" />
    <use x="12" y="6" href="#dot" />
    <use x="6" y="12" href="#dot" />
    <use x="14" y="6" href="#dot" />
    <use x="6" y="14" href="#dot" />
    <use x="16" y="6" href="#dot" />
    <use x="6" y="16" href="#dot" />
    <use x="18" y="6" href="#dot" />
    <use x="6" y="18" href="#dot" />
    <use x="20" y="6" href="#dot" />
    <use x="6" y="20" href="#dot" />
    <use x="22" y="6" href="#dot" />
    <use x="6" y="22" href="#dot" />
    <use x="24" y="6" href="#dot" />
    <use x="6" y="24" href="#dot" />
    <use x="8" y="25" href="#dot" />
    <use x="28" y="28" href="#dot" />
    <use x="27" y="28" href="#dot" />
    <use x="26" y="28" href="#dot" />
    <use x="25" y="28" href="#dot" />
    <use x="24" y="28" href="#dot" />
    <use x="28" y="27" href="#dot" />
    <use x="26" y="26" href="#dot" />
    <use x="2" y="8" href="#dot" />
    <use x="1" y="8" href="#dot" />
    <use x="24" y="27" href="#dot" />
    <use x="28" y="26" href="#dot" />
    <use x="8" y="30" href="#dot" />
    <use x="8" y="31" href="#dot" />
    <use x="8" y="32" href="#dot" />
    <use x="24" y="26" href="#dot" />
    <use x="28" y="25" href="#dot" />
    <use x="30" y="8" href="#dot" />
    <use x="26" y="8" href="#dot" />
    <use x="4" y="8" href="#dot" />
    <use x="24" y="25" href="#dot" />
    <use x="28" y="24" href="#dot" />
    <use x="27" y="24" href="#dot" />
    <use x="26" y="24" href="#dot" />
    <use x="25" y="24" href="#dot" />
    <use x="24" y="24" href="#dot" />
    <use x="0" y="8" href="#dot" />
    <use x="8" y="28" href="#dot" />
    <use x="8" y="7" href="#dot" />
    <use x="8" y="2" href="#dot" />
    <use x="32" y="32" href="#dot" />
    <use x="31" y="32" href="#dot" />
    <use x="31" y="31" href="#dot" />
    <use x="32" y="30" href="#dot" />
    <use x="32" y="29" href="#dot" />
    <use x="32" y="28" href="#dot" />
    <use x="31" y="28" href="#dot" />
    <use x="32" y="26" href="#dot" />
    <use x="31" y="26" href="#dot" />
    <use x="32" y="25" href="#dot" />
    <use x="31" y="25" href="#dot" />
    <use x="31" y="23" href="#dot" />
    <use x="32" y="22" href="#dot" />
    <use x="31" y="22" href="#dot" />
    <use x="32" y="21" href="#dot" />
    <use x="32" y="20" href="#dot" />
    <use x="31" y="20" href="#dot" />
    <use x="31" y="19" href="#dot" />
    <use x="32" y="18" href="#dot" />
    <use x="31" y="18" href="#dot" />
    <use x="32" y="17" href="#dot" />
    <use x="32" y="16" href="#dot" />
    <use x="31" y="16" href="#dot" />
    <use x="31" y="15" href="#dot" />
    <use x="32" y="14" href="#dot" />
    <use x="31" y="14" href="#dot" />
    <use x="32" y="13" href="#dot" />
    <use x="32" y="12" href="#dot" />
    <use x="31" y="11" href="#dot" />
    <use x="32" y="10" href="#dot" />
    <use x="31" y="10" href="#dot" />
    <use x="32" y="9" href="#dot" />
    <use x="29" y="9" href="#dot" />
    <use x="29" y="10" href="#dot" />
    <use x="29" y="11" href="#dot" />
    <use x="29" y="12" href="#dot" />
    <use x="30" y="13" href="#dot" />
    <use x="29" y="13" href="#dot" />
    <use x="29" y="15" href="#dot" />
    <use x="30" y="17" href="#dot" />
    <use x="29" y="18" href="#dot" />
    <use x="29" y="19" href="#dot" />
    <use x="30" y="21" href="#dot" />
    <use x="29" y="22" href="#dot" />
    <use x="29" y="26" href="#dot" />
    <use x="30" y="30" href="#dot" />
    <use x="29" y="30" href="#dot" />
    <use x="27" y="32" href="#dot" />
    <use x="28" y="31" href="#dot" />
    <use x="27" y="31" href="#dot" />
    <use x="28" y="30" href="#dot" />
    <use x="27" y="30" href="#dot" />
    <use x="28" y="29" href="#dot" />
    <use x="28" y="22" href="#dot" />
    <use x="28" y="19" href="#dot" />
    <use x="28" y="18" href="#dot" />
    <use x="28" y="14" href="#dot" />
    <use x="27" y="14" href="#dot" />
    <use x="27" y="13" href="#dot" />
    <use x="28" y="11" href="#dot" />
    <use x="28" y="10" href="#dot" />
    <use x="27" y="10" href="#dot" />
    <use x="26" y="9" href="#dot" />
    <use x="26" y="10" href="#dot" />
    <use x="26" y="11" href="#dot" />
    <use x="26" y="12" href="#dot" />
    <use x="25" y="12" href="#dot" />
    <use x="26" y="13" href="#dot" />
    <use x="26" y="14" href="#dot" />
    <use x="25" y="14" href="#dot" />
    <use x="25" y="15" href="#dot" />
    <use x="26" y="16" href="#dot" />
    <use x="25" y="16" href="#dot" />
    <use x="26" y="17" href="#dot" />
    <use x="25" y="17" href="#dot" />
    <use x="25" y="18" href="#dot" />
    <use x="26" y="19" href="#dot" />
    <use x="26" y="20" href="#dot" />
    <use x="25" y="20" href="#dot" />
    <use x="26" y="21" href="#dot" />
    <use x="25" y="21" href="#dot" />
    <use x="25" y="22" href="#dot" />
    <use x="26" y="23" href="#dot" />
    <use x="25" y="23" href="#dot" />
    <use x="26" y="32" href="#dot" />
    <use x="25" y="32" href="#dot" />
    <use x="24" y="32" href="#dot" />
    <use x="24" y="31" href="#dot" />
    <use x="23" y="31" href="#dot" />
    <use x="23" y="30" href="#dot" />
    <use x="23" y="27" href="#dot" />
    <use x="23" y="26" href="#dot" />
    <use x="23" y="23" href="#dot" />
    <use x="24" y="22" href="#dot" />
    <use x="24" y="21" href="#dot" />
    <use x="24" y="20" href="#dot" />
    <use x="24" y="19" href="#dot" />
    <use x="24" y="18" href="#dot" />
    <use x="24" y="15" href="#dot" />
    <use x="24" y="14" href="#dot" />
    <use x="24" y="11" href="#dot" />
    <use x="23" y="11" href="#dot" />
    <use x="24" y="10" href="#dot" />
    <use x="24" y="9" href="#dot" />
    <use x="24" y="8" href="#dot" />
    <use x="23" y="5" href="#dot" />
    <use x="23" y="4" href="#dot" />
    <use x="23" y="3" href="#dot" />
    <use x="23" y="2" href="#dot" />
    <use x="23" y="1" href="#dot" />
    <use x="24" y="0" href="#dot" />
    <use x="23" y="0" href="#dot" />
    <use x="21" y="0" href="#dot" />
    <use x="21" y="1" href="#dot" />
    <use x="21" y="5" href="#dot" />
    <use x="22" y="7" href="#dot" />
    <use x="21" y="7" href="#dot" />
    <use x="21" y="8" href="#dot" />
    <use x="21" y="9" href="#dot" />
    <use x="22" y="11" href="#dot" />
    <use x="21" y="11" href="#dot" />
    <use x="22" y="12" href="#dot" />
    <use x="21" y="12" href="#dot" />
    <use x="21" y="14" href="#dot" />
    <use x="21" y="15" href="#dot" />
    <use x="22" y="16" href="#dot" />
    <use x="21" y="16" href="#dot" />
    <use x="22" y="17" href="#dot" />
    <use x="21" y="17" href="#dot" />
    <use x="21" y="18" href="#dot" />
    <use x="22" y="19" href="#dot" />
    <use x="21" y="19" href="#dot" />
    <use x="22" y="20" href="#dot" />
    <use x="21" y="20" href="#dot" />
    <use x="21" y="22" href="#dot" />
    <use x="21" y="23" href="#dot" />
    <use x="21" y="24" href="#dot" />
    <use x="21" y="25" href="#dot" />
    <use x="22" y="26" href="#dot" />
    <use x="22" y="27" href="#dot" />
    <use x="21" y="27" href="#dot" />
    <use x="21" y="28" href="#dot" />
    <use x="22" y="29" href="#dot" />
    <use x="22" y="30" href="#dot" />
    <use x="21" y="30" href="#dot" />
    <use x="21" y="31" href="#dot" />
    <use x="21" y="32" href="#dot" />
    <use x="20" y="31" href="#dot" />
    <use x="19" y="31" href="#dot" />
    <use x="20" y="29" href="#dot" />
    <use x="20" y="26" href="#dot" />
    <use x="20" y="25" href="#dot" />
    <use x="20" y="24" href="#dot" />
    <use x="20" y="23" href="#dot" />
    <use x="19" y="23" href="#dot" />
    <use x="20" y="21" href="#dot" />
    <use x="20" y="17" href="#dot" />
    <use x="20" y="15" href="#dot" />
    <use x="19" y="15" href="#dot" />
    <use x="20" y="14" href="#dot" />
    <use x="20" y="13" href="#dot" />
    <use x="20" y="12" href="#dot" />
    <use x="19" y="11" href="#dot" />
    <use x="20" y="9" href="#dot" />
    <use x="20" y="7" href="#dot" />
    <use x="19" y="7" href="#dot" />
    <use x="19" y="5" href="#dot" />
    <use x="19" y="4" href="#dot" />
    <use x="20" y="2" href="#dot" />
    <use x="20" y="1" href="#dot" />
    <use x="19" y="1" href="#dot" />
    <use x="19" y="0" href="#dot" />
    <use x="18" y="0" href="#dot" />
    <use x="18" y="3" href="#dot" />
    <use x="18" y="4" href="#dot" />
    <use x="17" y="5" href="#dot" />
    <use x="18" y="7" href="#dot" />
    <use x="17" y="7" href="#dot" />
    <use x="17" y="8" href="#dot" />
    <use x="18" y="9" href="#dot" />
    <use x="17" y="9" href="#dot" />
    <use x="18" y="10" href="#dot" />
    <use x="17" y="11" href="#dot" />
    <use x="17" y="12" href="#dot" />
    <use x="18" y="13" href="#dot" />
    <use x="17" y="13" href="#dot" />
    <use x="18" y="14" href="#dot" />
    <use x="17" y="15" href="#dot" />
    <use x="17" y="16" href="#dot" />
    <use x="18" y="17" href="#dot" />
    <use x="17" y="17" href="#dot" />
    <use x="18" y="18" href="#dot" />
    <use x="17" y="18" href="#dot" />
    <use x="18" y="19" href="#dot" />
    <use x="17" y="19" href="#dot" />
    <use x="18" y="20" href="#dot" />
    <use x="17" y="20" href="#dot" />
    <use x="17" y="22" href="#dot" />
    <use x="17" y="23" href="#dot" />
    <use x="17" y="24" href="#dot" />
    <use x="17" y="26" href="#dot" />
    <use x="17" y="27" href="#dot" />
    <use x="17" y="28" href="#dot" />
    <use x="17" y="29" href="#dot" />
    <use x="18" y="31" href="#dot" />
    <use x="17" y="31" href="#dot" />
    <use x="17" y="32" href="#dot" />
    <use x="16" y="31" href="#dot" />
    <use x="15" y="31" href="#dot" />
    <use x="16" y="30" href="#dot" />
    <use x="16" y="28" href="#dot" />
    <use x="15" y="28" href="#dot" />
    <use x="16" y="27" href="#dot" />
    <use x="15" y="25" href="#dot" />
    <use x="16" y="24" href="#dot" />
    <use x="15" y="24" href="#dot" />
    <use x="16" y="23" href="#dot" />
    <use x="16" y="22" href="#dot" />
    <use x="15" y="22" href="#dot" />
    <use x="16" y="21" href="#dot" />
    <use x="15" y="21" href="#dot" />
    <use x="16" y="20" href="#dot" />
    <use x="15" y="19" href="#dot" />
    <use x="15" y="17" href="#dot" />
    <use x="15" y="16" href="#dot" />
    <use x="16" y="15" href="#dot" />
    <use x="16" y="14" href="#dot" />
    <use x="15" y="14" href="#dot" />
    <use x="16" y="13" href="#dot" />
    <use x="15" y="13" href="#dot" />
    <use x="16" y="12" href="#dot" />
    <use x="15" y="11" href="#dot" />
    <use x="15" y="9" href="#dot" />
    <use x="15" y="8" href="#dot" />
    <use x="16" y="7" href="#dot" />
    <use x="15" y="3" href="#dot" />
    <use x="16" y="2" href="#dot" />
    <use x="16" y="1" href="#dot" />
    <use x="15" y="1" href="#dot" />
    <use x="16" y="0" href="#dot" />
    <use x="13" y="0" href="#dot" />
    <use x="14" y="1" href="#dot" />
    <use x="14" y="2" href="#dot" />
    <use x="13" y="2" href="#dot" />
    <use x="14" y="3" href="#dot" />
    <use x="13" y="3" href="#dot" />
    <use x="14" y="4" href="#dot" />
    <use x="13" y="5" href="#dot" />
    <use x="14" y="7" href="#dot" />
    <use x="13" y="7" href="#dot" />
    <use x="14" y="8" href="#dot" />
    <use x="14" y="9" href="#dot" />
    <use x="13" y="10" href="#dot" />
    <use x="13" y="13" href="#dot" />
    <use x="14" y="14" href="#dot" />
    <use x="14" y="15" href="#dot" />
    <use x="13" y="15" href="#dot" />
    <use x="14" y="16" href="#dot" />
    <use x="14" y="17" href="#dot" />
    <use x="13" y="18" href="#dot" />
    <use x="13" y="21" href="#dot" />
    <use x="14" y="22" href="#dot" />
    <use x="14" y="23" href="#dot" />
    <use x="13" y="23" href="#dot" />
    <use x="14" y="24" href="#dot" />
    <use x="14" y="25" href="#dot" />
    <use x="13" y="26" href="#dot" />
    <use x="13" y="29" href="#dot" />
    <use x="14" y="30" href="#dot" />
    <use x="14" y="31" href="#dot" />
    <use x="13" y="31" href="#dot" />
    <use x="14" y="32" href="#dot" />
    <use x="11" y="32" href="#dot" />
    <use x="12" y="31" href="#dot" />
    <use x="12" y="30" href="#dot" />
    <use x="11" y="30" href="#dot" />
    <use x="12" y="29" href="#dot" />
    <use x="11" y="29" href="#dot" />
    <use x="12" y="28" href="#dot" />
    <use x="11" y="27" href="#dot" />
    <use x="11" y="25" href="#dot" />
    <use x="11" y="24" href="#dot" />
    <use x="12" y="23" href="#dot" />
    <use x="12" y="22" href="#dot" />
    <use x="11" y="22" href="#dot" />
    <use x="12" y="21" href="#dot" />
    <use x="11" y="21" href="#dot" />
    <use x="12" y="20" href="#dot" />
    <use x="11" y="19" href="#dot" />
    <use x="11" y="17" href="#dot" />
    <use x="11" y="16" href="#dot" />
    <use x="12" y="15" href="#dot" />
    <use x="12" y="14" href="#dot" />
    <use x="11" y="14" href="#dot" />
    <use x="12" y="13" href="#dot" />
    <use x="11" y="13" href="#dot" />
    <use x="12" y="12" href="#dot" />
    <use x="11" y="11" href="#dot" />
    <use x="11" y="9" href="#dot" />
    <use x="11" y="8" href="#dot" />
    <use x="12" y="7" href="#dot" />
    <use x="11" y="3" href="#dot" />
    <use x="12" y="2" href="#dot" />
    <use x="12" y="1" href="#dot" />
    <use x="11" y="1" href="#dot" />
    <use x="12" y="0" href="#dot" />
    <use x="9" y="0" href="#dot" />
    <use x="10" y="1" href="#dot" />
    <use x="10" y="2" href="#dot" />
    <use x="9" y="2" href="#dot" />
    <use x="10" y="3" href="#dot" />
    <use x="9" y="3" href="#dot" />
    <use x="10" y="4" href="#dot" />
    <use x="9" y="5" href="#dot" />
    <use x="10" y="7" href="#dot" />
    <use x="9" y="7" href="#dot" />
    <use x="10" y="8" href="#dot" />
    <use x="10" y="9" href="#dot" />
    <use x="9" y="10" href="#dot" />
    <use x="10" y="14" href="#dot" />
    <use x="9" y="14" href="#dot" />
    <use x="10" y="17" href="#dot" />
    <use x="9" y="17" href="#dot" />
    <use x="9" y="19" href="#dot" />
    <use x="10" y="20" href="#dot" />
    <use x="10" y="21" href="#dot" />
    <use x="10" y="22" href="#dot" />
    <use x="10" y="23" href="#dot" />
    <use x="9" y="23" href="#dot" />
    <use x="10" y="24" href="#dot" />
    <use x="10" y="27" href="#dot" />
    <use x="9" y="27" href="#dot" />
    <use x="10" y="29" href="#dot" />
    <use x="10" y="30" href="#dot" />
    <use x="9" y="31" href="#dot" />
    <use x="8" y="24" href="#dot" />
    <use x="8" y="23" href="#dot" />
    <use x="8" y="21" href="#dot" />
    <use x="8" y="20" href="#dot" />
    <use x="7" y="20" href="#dot" />
    <use x="7" y="18" href="#dot" />
    <use x="8" y="17" href="#dot" />
    <use x="7" y="17" href="#dot" />
    <use x="8" y="15" href="#dot" />
    <use x="7" y="15" href="#dot" />
    <use x="7" y="12" href="#dot" />
    <use x="8" y="10" href="#dot" />
    <use x="8" y="9" href="#dot" />
    <use x="7" y="9" href="#dot" />
    <use x="5" y="10" href="#dot" />
    <use x="4" y="10" href="#dot" />
    <use x="5" y="12" href="#dot" />
    <use x="5" y="13" href="#dot" />
    <use x="4" y="14" href="#dot" />
    <use x="5" y="15" href="#dot" />
    <use x="4" y="15" href="#dot" />
    <use x="5" y="17" href="#dot" />
    <use x="4" y="17" href="#dot" />
    <use x="5" y="20" href="#dot" />
    <use x="4" y="22" href="#dot" />
    <use x="5" y="24" href="#dot" />
    <use x="4" y="24" href="#dot" />
    <use x="3" y="24" href="#dot" />
    <use x="2" y="24" href="#dot" />
    <use x="3" y="23" href="#dot" />
    <use x="3" y="22" href="#dot" />
    <use x="2" y="21" href="#dot" />
    <use x="3" y="18" href="#dot" />
    <use x="2" y="18" href="#dot" />
    <use x="2" y="17" href="#dot" />
    <use x="3" y="16" href="#dot" />
    <use x="2" y="15" href="#dot" />
    <use x="3" y="13" href="#dot" />
    <use x="2" y="13" href="#dot" />
    <use x="3" y="12" href="#dot" />
    <use x="2" y="11" href="#dot" />
    <use x="3" y="9" href="#dot" />
    <use x="2" y="9" href="#dot" />
    <use x="0" y="10" href="#dot" />
    <use x="1" y="11" href="#dot" />
    <use x="0" y="11" href="#dot" />
    <use x="0" y="12" href="#dot" />
    <use x="1" y="13" href="#dot" />
    <use x="0" y="13" href="#dot" />
    <use x="1" y="14" href="#dot" />
    <use x="0" y="14" href="#dot" />
    <use x="0" y="15" href="#dot" />
    <use x="1" y="16" href="#dot" />
    <use x="1" y="18" href="#dot" />
    <use x="0" y="18" href="#dot" />
    <use x="1" y="19" href="#dot" />
    <use x="0" y="19" href="#dot" />
    <use x="1" y="20" href="#dot" />
    <use x="0" y="20" href="#dot" />
    <use x="0" y="22" href="#dot" />
    <use x="1" y="23" href="#dot" />
    <use x="0" y="24" href="#dot" />
  </g>
</svg>